# xmcd
#
# Track frame offsets: 
#        150
#        15160
#        29752
#        45755
#        61197
#        73852
#        88287
#        102255
#        116112
#        130245
#        144922
#        159115
#        173607
#        187987
#        200650
#        214857
#        225275
#        239305
#        252097
#        265510
#        278950
#        290672
#        301897
#
# Disc length: 4198 seconds
#
# Revision: 1
# Processed by: cddbd v1.5.2PL0 Copyright (c) Steve Scherf et al.
# Submitted via: ExactAudioCopyFreeDBPlugin 1.0
#
DISCID=39106417
DTITLE=Various Artist - Montana Taylor and Freddie Shayne: Complete Recorded 
DTITLE=Works (1929 - 1946)
DYEAR=1991
DGENRE=Blues
TTITLE0=Montana Taylor - Whoop and Holler Stomp
TTITLE1=Montana Taylor - Hayride Stomp
TTITLE2=Montana Taylor - Indiana Avenue Stomp
TTITLE3=Montana Taylor - Detroit Rocks
TTITLE4=Montana Taylor - Worried Jailhouse Blues
TTITLE5=Montana Taylor - Black Market Blues
TTITLE6=Montana Taylor - Low Down Bugle
TTITLE7=Montana Taylor - Mistreatin' Mr. Dupree
TTITLE8=Montana Taylor - Sweet Sue
TTITLE9=Montana Taylor - In The Bottom
TTITLE10=Montana Taylor - Rotten Break Blues
TTITLE11=Montana Taylor - I Can't Sleep
TTITLE12=Montana Taylor - 'Fo Day Blues
TTITLE13=Montana Taylor - Indiana Avenue Stomp
TTITLE14=Montana Taylor - Montana's Blues
TTITLE15=Montana Taylor - Five O'Clocks
TTITLE16=Montana Taylor - I Can't Sleep
TTITLE17=J. H. "Freddie" Shayne - Original Mr. Freddie Blues
TTITLE18=J. H. "Freddie" Shayne - Lonesome Man Blues
TTITLE19=J. H. "Freddie" Shayne - Mr. Freddy's Rag
TTITLE20=J. H. "Freddie" Shayne - Charleston Blues
TTITLE21=J. H. "Freddie" Shayne - How Long Blues
TTITLE22=J. H. "Freddie" Shayne - Chestnut Street Boogie
EXTD=
EXTT0=
EXTT1=
EXTT2=
EXTT3=
EXTT4=
EXTT5=
EXTT6=
EXTT7=
EXTT8=
EXTT9=
EXTT10=
EXTT11=
EXTT12=
EXTT13=
EXTT14=
EXTT15=
EXTT16=
EXTT17=
EXTT18=
EXTT19=
EXTT20=
EXTT21=
EXTT22=
PLAYORDER=
